<svg xmlns="http://www.w3.org/2000/svg" xmlns:xlink="http://www.w3.org/1999/xlink" width="1920" height="806" viewBox="0 0 1920 806">
  <defs>
    <linearGradient id="linear-gradient" x1="0.5" x2="0.5" y2="1" gradientUnits="objectBoundingBox">
      <stop offset="0" stop-color="#9ccdf9" stop-opacity="0.749"/>
      <stop offset="1" stop-color="#bbdfff" stop-opacity="0"/>
    </linearGradient>
    <clipPath id="clip-path">
      <rect id="Rectangle_927" data-name="Rectangle 927" width="1920" height="806" fill="url(#linear-gradient)"/>
    </clipPath>
  </defs>
  <g id="Mask_Group_213" data-name="Mask Group 213" clip-path="url(#clip-path)">
    <path id="Union_29" data-name="Union 29" d="M2226,797a2,2,0,1,1,2,2A2,2,0,0,1,2226,797Zm-53,0a2,2,0,1,1,2,2A2,2,0,0,1,2173,797Zm-53,0a2,2,0,1,1,2,2A2,2,0,0,1,2120,797Zm-53,0a2,2,0,1,1,2,2A2,2,0,0,1,2067,797Zm-53,0a2,2,0,1,1,2,2A2,2,0,0,1,2014,797Zm-53,0a2,2,0,1,1,2,2A2,2,0,0,1,1961,797Zm-53,0a2,2,0,1,1,2,2A2,2,0,0,1,1908,797Zm-53,0a2,2,0,1,1,2,2A2,2,0,0,1,1855,797Zm-53,0a2,2,0,1,1,2,2A2,2,0,0,1,1802,797Zm-53,0a2,2,0,1,1,2,2A2,2,0,0,1,1749,797Zm-53,0a2,2,0,1,1,2,2A2,2,0,0,1,1696,797Zm-53,0a2,2,0,1,1,2,2A2,2,0,0,1,1643,797Zm-53,0a2,2,0,1,1,2,2A2,2,0,0,1,1590,797Zm-53,0a2,2,0,1,1,2,2A2,2,0,0,1,1537,797Zm-53,0a2,2,0,1,1,2,2A2,2,0,0,1,1484,797Zm-53,0a2,2,0,1,1,2,2A2,2,0,0,1,1431,797Zm-53,0a2,2,0,1,1,2,2A2,2,0,0,1,1378,797Zm-53,0a2,2,0,1,1,2,2A2,2,0,0,1,1325,797Zm-53,0a2,2,0,1,1,2,2A2,2,0,0,1,1272,797Zm-53,0a2,2,0,1,1,2,2A2,2,0,0,1,1219,797Zm-53,0a2,2,0,1,1,2,2A2,2,0,0,1,1166,797Zm-53,0a2,2,0,1,1,2,2A2,2,0,0,1,1113,797Zm-53,0a2,2,0,1,1,2,2A2,2,0,0,1,1060,797Zm-53,0a2,2,0,1,1,2,2A2,2,0,0,1,1007,797Zm-53,0a2,2,0,1,1,2,2A2,2,0,0,1,954,797Zm-53,0a2,2,0,1,1,2,2A2,2,0,0,1,901,797Zm-53,0a2,2,0,1,1,2,2A2,2,0,0,1,848,797Zm-53,0a2,2,0,1,1,2,2A2,2,0,0,1,795,797Zm-53,0a2,2,0,1,1,2,2A2,2,0,0,1,742,797Zm-53,0a2,2,0,1,1,2,2A2,2,0,0,1,689,797Zm-53,0a2,2,0,1,1,2,2A2,2,0,0,1,636,797Zm-53,0a2,2,0,1,1,2,2A2,2,0,0,1,583,797Zm-53,0a2,2,0,1,1,2,2A2,2,0,0,1,530,797Zm-53,0a2,2,0,1,1,2,2A2,2,0,0,1,477,797Zm-53,0a2,2,0,1,1,2,2A2,2,0,0,1,424,797Zm-53,0a2,2,0,1,1,2,2A2,2,0,0,1,371,797Zm-53,0a2,2,0,1,1,2,2A2,2,0,0,1,318,797Zm-53,0a2,2,0,1,1,2,2A2,2,0,0,1,265,797Zm-53,0a2,2,0,1,1,2,2A2,2,0,0,1,212,797Zm-53,0a2,2,0,1,1,2,2A2,2,0,0,1,159,797Zm-53,0a2,2,0,1,1,2,2A2,2,0,0,1,106,797Zm-53,0a2,2,0,1,1,2,2A2,2,0,0,1,53,797ZM0,797a2,2,0,1,1,2,2A2,2,0,0,1,0,797Zm2226-53a2,2,0,1,1,2,2A2,2,0,0,1,2226,744Zm-53,0a2,2,0,1,1,2,2A2,2,0,0,1,2173,744Zm-53,0a2,2,0,1,1,2,2A2,2,0,0,1,2120,744Zm-53,0a2,2,0,1,1,2,2A2,2,0,0,1,2067,744Zm-53,0a2,2,0,1,1,2,2A2,2,0,0,1,2014,744Zm-53,0a2,2,0,1,1,2,2A2,2,0,0,1,1961,744Zm-53,0a2,2,0,1,1,2,2A2,2,0,0,1,1908,744Zm-53,0a2,2,0,1,1,2,2A2,2,0,0,1,1855,744Zm-53,0a2,2,0,1,1,2,2A2,2,0,0,1,1802,744Zm-53,0a2,2,0,1,1,2,2A2,2,0,0,1,1749,744Zm-53,0a2,2,0,1,1,2,2A2,2,0,0,1,1696,744Zm-53,0a2,2,0,1,1,2,2A2,2,0,0,1,1643,744Zm-53,0a2,2,0,1,1,2,2A2,2,0,0,1,1590,744Zm-53,0a2,2,0,1,1,2,2A2,2,0,0,1,1537,744Zm-53,0a2,2,0,1,1,2,2A2,2,0,0,1,1484,744Zm-53,0a2,2,0,1,1,2,2A2,2,0,0,1,1431,744Zm-53,0a2,2,0,1,1,2,2A2,2,0,0,1,1378,744Zm-53,0a2,2,0,1,1,2,2A2,2,0,0,1,1325,744Zm-53,0a2,2,0,1,1,2,2A2,2,0,0,1,1272,744Zm-53,0a2,2,0,1,1,2,2A2,2,0,0,1,1219,744Zm-53,0a2,2,0,1,1,2,2A2,2,0,0,1,1166,744Zm-53,0a2,2,0,1,1,2,2A2,2,0,0,1,1113,744Zm-53,0a2,2,0,1,1,2,2A2,2,0,0,1,1060,744Zm-53,0a2,2,0,1,1,2,2A2,2,0,0,1,1007,744Zm-53,0a2,2,0,1,1,2,2A2,2,0,0,1,954,744Zm-53,0a2,2,0,1,1,2,2A2,2,0,0,1,901,744Zm-53,0a2,2,0,1,1,2,2A2,2,0,0,1,848,744Zm-53,0a2,2,0,1,1,2,2A2,2,0,0,1,795,744Zm-53,0a2,2,0,1,1,2,2A2,2,0,0,1,742,744Zm-53,0a2,2,0,1,1,2,2A2,2,0,0,1,689,744Zm-53,0a2,2,0,1,1,2,2A2,2,0,0,1,636,744Zm-53,0a2,2,0,1,1,2,2A2,2,0,0,1,583,744Zm-53,0a2,2,0,1,1,2,2A2,2,0,0,1,530,744Zm-53,0a2,2,0,1,1,2,2A2,2,0,0,1,477,744Zm-53,0a2,2,0,1,1,2,2A2,2,0,0,1,424,744Zm-53,0a2,2,0,1,1,2,2A2,2,0,0,1,371,744Zm-53,0a2,2,0,1,1,2,2A2,2,0,0,1,318,744Zm-53,0a2,2,0,1,1,2,2A2,2,0,0,1,265,744Zm-53,0a2,2,0,1,1,2,2A2,2,0,0,1,212,744Zm-53,0a2,2,0,1,1,2,2A2,2,0,0,1,159,744Zm-53,0a2,2,0,1,1,2,2A2,2,0,0,1,106,744Zm-53,0a2,2,0,1,1,2,2A2,2,0,0,1,53,744ZM0,744a2,2,0,1,1,2,2A2,2,0,0,1,0,744Zm2226-53a2,2,0,1,1,2,2A2,2,0,0,1,2226,691Zm-53,0a2,2,0,1,1,2,2A2,2,0,0,1,2173,691Zm-53,0a2,2,0,1,1,2,2A2,2,0,0,1,2120,691Zm-53,0a2,2,0,1,1,2,2A2,2,0,0,1,2067,691Zm-53,0a2,2,0,1,1,2,2A2,2,0,0,1,2014,691Zm-53,0a2,2,0,1,1,2,2A2,2,0,0,1,1961,691Zm-53,0a2,2,0,1,1,2,2A2,2,0,0,1,1908,691Zm-53,0a2,2,0,1,1,2,2A2,2,0,0,1,1855,691Zm-53,0a2,2,0,1,1,2,2A2,2,0,0,1,1802,691Zm-53,0a2,2,0,1,1,2,2A2,2,0,0,1,1749,691Zm-53,0a2,2,0,1,1,2,2A2,2,0,0,1,1696,691Zm-53,0a2,2,0,1,1,2,2A2,2,0,0,1,1643,691Zm-53,0a2,2,0,1,1,2,2A2,2,0,0,1,1590,691Zm-53,0a2,2,0,1,1,2,2A2,2,0,0,1,1537,691Zm-53,0a2,2,0,1,1,2,2A2,2,0,0,1,1484,691Zm-53,0a2,2,0,1,1,2,2A2,2,0,0,1,1431,691Zm-53,0a2,2,0,1,1,2,2A2,2,0,0,1,1378,691Zm-53,0a2,2,0,1,1,2,2A2,2,0,0,1,1325,691Zm-53,0a2,2,0,1,1,2,2A2,2,0,0,1,1272,691Zm-53,0a2,2,0,1,1,2,2A2,2,0,0,1,1219,691Zm-53,0a2,2,0,1,1,2,2A2,2,0,0,1,1166,691Zm-53,0a2,2,0,1,1,2,2A2,2,0,0,1,1113,691Zm-53,0a2,2,0,1,1,2,2A2,2,0,0,1,1060,691Zm-53,0a2,2,0,1,1,2,2A2,2,0,0,1,1007,691Zm-53,0a2,2,0,1,1,2,2A2,2,0,0,1,954,691Zm-53,0a2,2,0,1,1,2,2A2,2,0,0,1,901,691Zm-53,0a2,2,0,1,1,2,2A2,2,0,0,1,848,691Zm-53,0a2,2,0,1,1,2,2A2,2,0,0,1,795,691Zm-53,0a2,2,0,1,1,2,2A2,2,0,0,1,742,691Zm-53,0a2,2,0,1,1,2,2A2,2,0,0,1,689,691Zm-53,0a2,2,0,1,1,2,2A2,2,0,0,1,636,691Zm-53,0a2,2,0,1,1,2,2A2,2,0,0,1,583,691Zm-53,0a2,2,0,1,1,2,2A2,2,0,0,1,530,691Zm-53,0a2,2,0,1,1,2,2A2,2,0,0,1,477,691Zm-53,0a2,2,0,1,1,2,2A2,2,0,0,1,424,691Zm-53,0a2,2,0,1,1,2,2A2,2,0,0,1,371,691Zm-53,0a2,2,0,1,1,2,2A2,2,0,0,1,318,691Zm-53,0a2,2,0,1,1,2,2A2,2,0,0,1,265,691Zm-53,0a2,2,0,1,1,2,2A2,2,0,0,1,212,691Zm-53,0a2,2,0,1,1,2,2A2,2,0,0,1,159,691Zm-53,0a2,2,0,1,1,2,2A2,2,0,0,1,106,691Zm-53,0a2,2,0,1,1,2,2A2,2,0,0,1,53,691ZM0,691a2,2,0,1,1,2,2A2,2,0,0,1,0,691Zm2226-53a2,2,0,1,1,2,2A2,2,0,0,1,2226,638Zm-53,0a2,2,0,1,1,2,2A2,2,0,0,1,2173,638Zm-53,0a2,2,0,1,1,2,2A2,2,0,0,1,2120,638Zm-53,0a2,2,0,1,1,2,2A2,2,0,0,1,2067,638Zm-53,0a2,2,0,1,1,2,2A2,2,0,0,1,2014,638Zm-53,0a2,2,0,1,1,2,2A2,2,0,0,1,1961,638Zm-53,0a2,2,0,1,1,2,2A2,2,0,0,1,1908,638Zm-53,0a2,2,0,1,1,2,2A2,2,0,0,1,1855,638Zm-53,0a2,2,0,1,1,2,2A2,2,0,0,1,1802,638Zm-53,0a2,2,0,1,1,2,2A2,2,0,0,1,1749,638Zm-53,0a2,2,0,1,1,2,2A2,2,0,0,1,1696,638Zm-53,0a2,2,0,1,1,2,2A2,2,0,0,1,1643,638Zm-53,0a2,2,0,1,1,2,2A2,2,0,0,1,1590,638Zm-53,0a2,2,0,1,1,2,2A2,2,0,0,1,1537,638Zm-53,0a2,2,0,1,1,2,2A2,2,0,0,1,1484,638Zm-53,0a2,2,0,1,1,2,2A2,2,0,0,1,1431,638Zm-53,0a2,2,0,1,1,2,2A2,2,0,0,1,1378,638Zm-53,0a2,2,0,1,1,2,2A2,2,0,0,1,1325,638Zm-53,0a2,2,0,1,1,2,2A2,2,0,0,1,1272,638Zm-53,0a2,2,0,1,1,2,2A2,2,0,0,1,1219,638Zm-53,0a2,2,0,1,1,2,2A2,2,0,0,1,1166,638Zm-53,0a2,2,0,1,1,2,2A2,2,0,0,1,1113,638Zm-53,0a2,2,0,1,1,2,2A2,2,0,0,1,1060,638Zm-53,0a2,2,0,1,1,2,2A2,2,0,0,1,1007,638Zm-53,0a2,2,0,1,1,2,2A2,2,0,0,1,954,638Zm-53,0a2,2,0,1,1,2,2A2,2,0,0,1,901,638Zm-53,0a2,2,0,1,1,2,2A2,2,0,0,1,848,638Zm-53,0a2,2,0,1,1,2,2A2,2,0,0,1,795,638Zm-53,0a2,2,0,1,1,2,2A2,2,0,0,1,742,638Zm-53,0a2,2,0,1,1,2,2A2,2,0,0,1,689,638Zm-53,0a2,2,0,1,1,2,2A2,2,0,0,1,636,638Zm-53,0a2,2,0,1,1,2,2A2,2,0,0,1,583,638Zm-53,0a2,2,0,1,1,2,2A2,2,0,0,1,530,638Zm-53,0a2,2,0,1,1,2,2A2,2,0,0,1,477,638Zm-53,0a2,2,0,1,1,2,2A2,2,0,0,1,424,638Zm-53,0a2,2,0,1,1,2,2A2,2,0,0,1,371,638Zm-53,0a2,2,0,1,1,2,2A2,2,0,0,1,318,638Zm-53,0a2,2,0,1,1,2,2A2,2,0,0,1,265,638Zm-53,0a2,2,0,1,1,2,2A2,2,0,0,1,212,638Zm-53,0a2,2,0,1,1,2,2A2,2,0,0,1,159,638Zm-53,0a2,2,0,1,1,2,2A2,2,0,0,1,106,638Zm-53,0a2,2,0,1,1,2,2A2,2,0,0,1,53,638ZM0,638a2,2,0,1,1,2,2A2,2,0,0,1,0,638Zm2226-53a2,2,0,1,1,2,2A2,2,0,0,1,2226,585Zm-53,0a2,2,0,1,1,2,2A2,2,0,0,1,2173,585Zm-53,0a2,2,0,1,1,2,2A2,2,0,0,1,2120,585Zm-53,0a2,2,0,1,1,2,2A2,2,0,0,1,2067,585Zm-53,0a2,2,0,1,1,2,2A2,2,0,0,1,2014,585Zm-53,0a2,2,0,1,1,2,2A2,2,0,0,1,1961,585Zm-53,0a2,2,0,1,1,2,2A2,2,0,0,1,1908,585Zm-53,0a2,2,0,1,1,2,2A2,2,0,0,1,1855,585Zm-53,0a2,2,0,1,1,2,2A2,2,0,0,1,1802,585Zm-53,0a2,2,0,1,1,2,2A2,2,0,0,1,1749,585Zm-53,0a2,2,0,1,1,2,2A2,2,0,0,1,1696,585Zm-53,0a2,2,0,1,1,2,2A2,2,0,0,1,1643,585Zm-53,0a2,2,0,1,1,2,2A2,2,0,0,1,1590,585Zm-53,0a2,2,0,1,1,2,2A2,2,0,0,1,1537,585Zm-53,0a2,2,0,1,1,2,2A2,2,0,0,1,1484,585Zm-53,0a2,2,0,1,1,2,2A2,2,0,0,1,1431,585Zm-53,0a2,2,0,1,1,2,2A2,2,0,0,1,1378,585Zm-53,0a2,2,0,1,1,2,2A2,2,0,0,1,1325,585Zm-53,0a2,2,0,1,1,2,2A2,2,0,0,1,1272,585Zm-53,0a2,2,0,1,1,2,2A2,2,0,0,1,1219,585Zm-53,0a2,2,0,1,1,2,2A2,2,0,0,1,1166,585Zm-53,0a2,2,0,1,1,2,2A2,2,0,0,1,1113,585Zm-53,0a2,2,0,1,1,2,2A2,2,0,0,1,1060,585Zm-53,0a2,2,0,1,1,2,2A2,2,0,0,1,1007,585Zm-53,0a2,2,0,1,1,2,2A2,2,0,0,1,954,585Zm-53,0a2,2,0,1,1,2,2A2,2,0,0,1,901,585Zm-53,0a2,2,0,1,1,2,2A2,2,0,0,1,848,585Zm-53,0a2,2,0,1,1,2,2A2,2,0,0,1,795,585Zm-53,0a2,2,0,1,1,2,2A2,2,0,0,1,742,585Zm-53,0a2,2,0,1,1,2,2A2,2,0,0,1,689,585Zm-53,0a2,2,0,1,1,2,2A2,2,0,0,1,636,585Zm-53,0a2,2,0,1,1,2,2A2,2,0,0,1,583,585Zm-53,0a2,2,0,1,1,2,2A2,2,0,0,1,530,585Zm-53,0a2,2,0,1,1,2,2A2,2,0,0,1,477,585Zm-53,0a2,2,0,1,1,2,2A2,2,0,0,1,424,585Zm-53,0a2,2,0,1,1,2,2A2,2,0,0,1,371,585Zm-53,0a2,2,0,1,1,2,2A2,2,0,0,1,318,585Zm-53,0a2,2,0,1,1,2,2A2,2,0,0,1,265,585Zm-53,0a2,2,0,1,1,2,2A2,2,0,0,1,212,585Zm-53,0a2,2,0,1,1,2,2A2,2,0,0,1,159,585Zm-53,0a2,2,0,1,1,2,2A2,2,0,0,1,106,585Zm-53,0a2,2,0,1,1,2,2A2,2,0,0,1,53,585ZM0,585a2,2,0,1,1,2,2A2,2,0,0,1,0,585Zm2226-53a2,2,0,1,1,2,2A2,2,0,0,1,2226,532Zm-53,0a2,2,0,1,1,2,2A2,2,0,0,1,2173,532Zm-53,0a2,2,0,1,1,2,2A2,2,0,0,1,2120,532Zm-53,0a2,2,0,1,1,2,2A2,2,0,0,1,2067,532Zm-53,0a2,2,0,1,1,2,2A2,2,0,0,1,2014,532Zm-53,0a2,2,0,1,1,2,2A2,2,0,0,1,1961,532Zm-53,0a2,2,0,1,1,2,2A2,2,0,0,1,1908,532Zm-53,0a2,2,0,1,1,2,2A2,2,0,0,1,1855,532Zm-53,0a2,2,0,1,1,2,2A2,2,0,0,1,1802,532Zm-53,0a2,2,0,1,1,2,2A2,2,0,0,1,1749,532Zm-53,0a2,2,0,1,1,2,2A2,2,0,0,1,1696,532Zm-53,0a2,2,0,1,1,2,2A2,2,0,0,1,1643,532Zm-53,0a2,2,0,1,1,2,2A2,2,0,0,1,1590,532Zm-53,0a2,2,0,1,1,2,2A2,2,0,0,1,1537,532Zm-53,0a2,2,0,1,1,2,2A2,2,0,0,1,1484,532Zm-53,0a2,2,0,1,1,2,2A2,2,0,0,1,1431,532Zm-53,0a2,2,0,1,1,2,2A2,2,0,0,1,1378,532Zm-53,0a2,2,0,1,1,2,2A2,2,0,0,1,1325,532Zm-53,0a2,2,0,1,1,2,2A2,2,0,0,1,1272,532Zm-53,0a2,2,0,1,1,2,2A2,2,0,0,1,1219,532Zm-53,0a2,2,0,1,1,2,2A2,2,0,0,1,1166,532Zm-53,0a2,2,0,1,1,2,2A2,2,0,0,1,1113,532Zm-53,0a2,2,0,1,1,2,2A2,2,0,0,1,1060,532Zm-53,0a2,2,0,1,1,2,2A2,2,0,0,1,1007,532Zm-53,0a2,2,0,1,1,2,2A2,2,0,0,1,954,532Zm-53,0a2,2,0,1,1,2,2A2,2,0,0,1,901,532Zm-53,0a2,2,0,1,1,2,2A2,2,0,0,1,848,532Zm-53,0a2,2,0,1,1,2,2A2,2,0,0,1,795,532Zm-53,0a2,2,0,1,1,2,2A2,2,0,0,1,742,532Zm-53,0a2,2,0,1,1,2,2A2,2,0,0,1,689,532Zm-53,0a2,2,0,1,1,2,2A2,2,0,0,1,636,532Zm-53,0a2,2,0,1,1,2,2A2,2,0,0,1,583,532Zm-53,0a2,2,0,1,1,2,2A2,2,0,0,1,530,532Zm-53,0a2,2,0,1,1,2,2A2,2,0,0,1,477,532Zm-53,0a2,2,0,1,1,2,2A2,2,0,0,1,424,532Zm-53,0a2,2,0,1,1,2,2A2,2,0,0,1,371,532Zm-53,0a2,2,0,1,1,2,2A2,2,0,0,1,318,532Zm-53,0a2,2,0,1,1,2,2A2,2,0,0,1,265,532Zm-53,0a2,2,0,1,1,2,2A2,2,0,0,1,212,532Zm-53,0a2,2,0,1,1,2,2A2,2,0,0,1,159,532Zm-53,0a2,2,0,1,1,2,2A2,2,0,0,1,106,532Zm-53,0a2,2,0,1,1,2,2A2,2,0,0,1,53,532ZM0,532a2,2,0,1,1,2,2A2,2,0,0,1,0,532Zm2226-53a2,2,0,1,1,2,2A2,2,0,0,1,2226,479Zm-53,0a2,2,0,1,1,2,2A2,2,0,0,1,2173,479Zm-53,0a2,2,0,1,1,2,2A2,2,0,0,1,2120,479Zm-53,0a2,2,0,1,1,2,2A2,2,0,0,1,2067,479Zm-53,0a2,2,0,1,1,2,2A2,2,0,0,1,2014,479Zm-53,0a2,2,0,1,1,2,2A2,2,0,0,1,1961,479Zm-53,0a2,2,0,1,1,2,2A2,2,0,0,1,1908,479Zm-53,0a2,2,0,1,1,2,2A2,2,0,0,1,1855,479Zm-53,0a2,2,0,1,1,2,2A2,2,0,0,1,1802,479Zm-53,0a2,2,0,1,1,2,2A2,2,0,0,1,1749,479Zm-53,0a2,2,0,1,1,2,2A2,2,0,0,1,1696,479Zm-53,0a2,2,0,1,1,2,2A2,2,0,0,1,1643,479Zm-53,0a2,2,0,1,1,2,2A2,2,0,0,1,1590,479Zm-53,0a2,2,0,1,1,2,2A2,2,0,0,1,1537,479Zm-53,0a2,2,0,1,1,2,2A2,2,0,0,1,1484,479Zm-53,0a2,2,0,1,1,2,2A2,2,0,0,1,1431,479Zm-53,0a2,2,0,1,1,2,2A2,2,0,0,1,1378,479Zm-53,0a2,2,0,1,1,2,2A2,2,0,0,1,1325,479Zm-53,0a2,2,0,1,1,2,2A2,2,0,0,1,1272,479Zm-53,0a2,2,0,1,1,2,2A2,2,0,0,1,1219,479Zm-53,0a2,2,0,1,1,2,2A2,2,0,0,1,1166,479Zm-53,0a2,2,0,1,1,2,2A2,2,0,0,1,1113,479Zm-53,0a2,2,0,1,1,2,2A2,2,0,0,1,1060,479Zm-53,0a2,2,0,1,1,2,2A2,2,0,0,1,1007,479Zm-53,0a2,2,0,1,1,2,2A2,2,0,0,1,954,479Zm-53,0a2,2,0,1,1,2,2A2,2,0,0,1,901,479Zm-53,0a2,2,0,1,1,2,2A2,2,0,0,1,848,479Zm-53,0a2,2,0,1,1,2,2A2,2,0,0,1,795,479Zm-53,0a2,2,0,1,1,2,2A2,2,0,0,1,742,479Zm-53,0a2,2,0,1,1,2,2A2,2,0,0,1,689,479Zm-53,0a2,2,0,1,1,2,2A2,2,0,0,1,636,479Zm-53,0a2,2,0,1,1,2,2A2,2,0,0,1,583,479Zm-53,0a2,2,0,1,1,2,2A2,2,0,0,1,530,479Zm-53,0a2,2,0,1,1,2,2A2,2,0,0,1,477,479Zm-53,0a2,2,0,1,1,2,2A2,2,0,0,1,424,479Zm-53,0a2,2,0,1,1,2,2A2,2,0,0,1,371,479Zm-53,0a2,2,0,1,1,2,2A2,2,0,0,1,318,479Zm-53,0a2,2,0,1,1,2,2A2,2,0,0,1,265,479Zm-53,0a2,2,0,1,1,2,2A2,2,0,0,1,212,479Zm-53,0a2,2,0,1,1,2,2A2,2,0,0,1,159,479Zm-53,0a2,2,0,1,1,2,2A2,2,0,0,1,106,479Zm-53,0a2,2,0,1,1,2,2A2,2,0,0,1,53,479ZM0,479a2,2,0,1,1,2,2A2,2,0,0,1,0,479Zm2226-53a2,2,0,1,1,2,2A2,2,0,0,1,2226,426Zm-53,0a2,2,0,1,1,2,2A2,2,0,0,1,2173,426Zm-53,0a2,2,0,1,1,2,2A2,2,0,0,1,2120,426Zm-53,0a2,2,0,1,1,2,2A2,2,0,0,1,2067,426Zm-53,0a2,2,0,1,1,2,2A2,2,0,0,1,2014,426Zm-53,0a2,2,0,1,1,2,2A2,2,0,0,1,1961,426Zm-53,0a2,2,0,1,1,2,2A2,2,0,0,1,1908,426Zm-53,0a2,2,0,1,1,2,2A2,2,0,0,1,1855,426Zm-53,0a2,2,0,1,1,2,2A2,2,0,0,1,1802,426Zm-53,0a2,2,0,1,1,2,2A2,2,0,0,1,1749,426Zm-53,0a2,2,0,1,1,2,2A2,2,0,0,1,1696,426Zm-53,0a2,2,0,1,1,2,2A2,2,0,0,1,1643,426Zm-53,0a2,2,0,1,1,2,2A2,2,0,0,1,1590,426Zm-53,0a2,2,0,1,1,2,2A2,2,0,0,1,1537,426Zm-53,0a2,2,0,1,1,2,2A2,2,0,0,1,1484,426Zm-53,0a2,2,0,1,1,2,2A2,2,0,0,1,1431,426Zm-53,0a2,2,0,1,1,2,2A2,2,0,0,1,1378,426Zm-53,0a2,2,0,1,1,2,2A2,2,0,0,1,1325,426Zm-53,0a2,2,0,1,1,2,2A2,2,0,0,1,1272,426Zm-53,0a2,2,0,1,1,2,2A2,2,0,0,1,1219,426Zm-53,0a2,2,0,1,1,2,2A2,2,0,0,1,1166,426Zm-53,0a2,2,0,1,1,2,2A2,2,0,0,1,1113,426Zm-53,0a2,2,0,1,1,2,2A2,2,0,0,1,1060,426Zm-53,0a2,2,0,1,1,2,2A2,2,0,0,1,1007,426Zm-53,0a2,2,0,1,1,2,2A2,2,0,0,1,954,426Zm-53,0a2,2,0,1,1,2,2A2,2,0,0,1,901,426Zm-53,0a2,2,0,1,1,2,2A2,2,0,0,1,848,426Zm-53,0a2,2,0,1,1,2,2A2,2,0,0,1,795,426Zm-53,0a2,2,0,1,1,2,2A2,2,0,0,1,742,426Zm-53,0a2,2,0,1,1,2,2A2,2,0,0,1,689,426Zm-53,0a2,2,0,1,1,2,2A2,2,0,0,1,636,426Zm-53,0a2,2,0,1,1,2,2A2,2,0,0,1,583,426Zm-53,0a2,2,0,1,1,2,2A2,2,0,0,1,530,426Zm-53,0a2,2,0,1,1,2,2A2,2,0,0,1,477,426Zm-53,0a2,2,0,1,1,2,2A2,2,0,0,1,424,426Zm-53,0a2,2,0,1,1,2,2A2,2,0,0,1,371,426Zm-53,0a2,2,0,1,1,2,2A2,2,0,0,1,318,426Zm-53,0a2,2,0,1,1,2,2A2,2,0,0,1,265,426Zm-53,0a2,2,0,1,1,2,2A2,2,0,0,1,212,426Zm-53,0a2,2,0,1,1,2,2A2,2,0,0,1,159,426Zm-53,0a2,2,0,1,1,2,2A2,2,0,0,1,106,426Zm-53,0a2,2,0,1,1,2,2A2,2,0,0,1,53,426ZM0,426a2,2,0,1,1,2,2A2,2,0,0,1,0,426Zm2226-53a2,2,0,1,1,2,2A2,2,0,0,1,2226,373Zm-53,0a2,2,0,1,1,2,2A2,2,0,0,1,2173,373Zm-53,0a2,2,0,1,1,2,2A2,2,0,0,1,2120,373Zm-53,0a2,2,0,1,1,2,2A2,2,0,0,1,2067,373Zm-53,0a2,2,0,1,1,2,2A2,2,0,0,1,2014,373Zm-53,0a2,2,0,1,1,2,2A2,2,0,0,1,1961,373Zm-53,0a2,2,0,1,1,2,2A2,2,0,0,1,1908,373Zm-53,0a2,2,0,1,1,2,2A2,2,0,0,1,1855,373Zm-53,0a2,2,0,1,1,2,2A2,2,0,0,1,1802,373Zm-53,0a2,2,0,1,1,2,2A2,2,0,0,1,1749,373Zm-53,0a2,2,0,1,1,2,2A2,2,0,0,1,1696,373Zm-53,0a2,2,0,1,1,2,2A2,2,0,0,1,1643,373Zm-53,0a2,2,0,1,1,2,2A2,2,0,0,1,1590,373Zm-53,0a2,2,0,1,1,2,2A2,2,0,0,1,1537,373Zm-53,0a2,2,0,1,1,2,2A2,2,0,0,1,1484,373Zm-53,0a2,2,0,1,1,2,2A2,2,0,0,1,1431,373Zm-53,0a2,2,0,1,1,2,2A2,2,0,0,1,1378,373Zm-53,0a2,2,0,1,1,2,2A2,2,0,0,1,1325,373Zm-53,0a2,2,0,1,1,2,2A2,2,0,0,1,1272,373Zm-53,0a2,2,0,1,1,2,2A2,2,0,0,1,1219,373Zm-53,0a2,2,0,1,1,2,2A2,2,0,0,1,1166,373Zm-53,0a2,2,0,1,1,2,2A2,2,0,0,1,1113,373Zm-53,0a2,2,0,1,1,2,2A2,2,0,0,1,1060,373Zm-53,0a2,2,0,1,1,2,2A2,2,0,0,1,1007,373Zm-53,0a2,2,0,1,1,2,2A2,2,0,0,1,954,373Zm-53,0a2,2,0,1,1,2,2A2,2,0,0,1,901,373Zm-53,0a2,2,0,1,1,2,2A2,2,0,0,1,848,373Zm-53,0a2,2,0,1,1,2,2A2,2,0,0,1,795,373Zm-53,0a2,2,0,1,1,2,2A2,2,0,0,1,742,373Zm-53,0a2,2,0,1,1,2,2A2,2,0,0,1,689,373Zm-53,0a2,2,0,1,1,2,2A2,2,0,0,1,636,373Zm-53,0a2,2,0,1,1,2,2A2,2,0,0,1,583,373Zm-53,0a2,2,0,1,1,2,2A2,2,0,0,1,530,373Zm-53,0a2,2,0,1,1,2,2A2,2,0,0,1,477,373Zm-53,0a2,2,0,1,1,2,2A2,2,0,0,1,424,373Zm-53,0a2,2,0,1,1,2,2A2,2,0,0,1,371,373Zm-53,0a2,2,0,1,1,2,2A2,2,0,0,1,318,373Zm-53,0a2,2,0,1,1,2,2A2,2,0,0,1,265,373Zm-53,0a2,2,0,1,1,2,2A2,2,0,0,1,212,373Zm-53,0a2,2,0,1,1,2,2A2,2,0,0,1,159,373Zm-53,0a2,2,0,1,1,2,2A2,2,0,0,1,106,373Zm-53,0a2,2,0,1,1,2,2A2,2,0,0,1,53,373ZM0,373a2,2,0,1,1,2,2A2,2,0,0,1,0,373Zm2226-53a2,2,0,1,1,2,2A2,2,0,0,1,2226,320Zm-53,0a2,2,0,1,1,2,2A2,2,0,0,1,2173,320Zm-53,0a2,2,0,1,1,2,2A2,2,0,0,1,2120,320Zm-53,0a2,2,0,1,1,2,2A2,2,0,0,1,2067,320Zm-53,0a2,2,0,1,1,2,2A2,2,0,0,1,2014,320Zm-53,0a2,2,0,1,1,2,2A2,2,0,0,1,1961,320Zm-53,0a2,2,0,1,1,2,2A2,2,0,0,1,1908,320Zm-53,0a2,2,0,1,1,2,2A2,2,0,0,1,1855,320Zm-53,0a2,2,0,1,1,2,2A2,2,0,0,1,1802,320Zm-53,0a2,2,0,1,1,2,2A2,2,0,0,1,1749,320Zm-53,0a2,2,0,1,1,2,2A2,2,0,0,1,1696,320Zm-53,0a2,2,0,1,1,2,2A2,2,0,0,1,1643,320Zm-53,0a2,2,0,1,1,2,2A2,2,0,0,1,1590,320Zm-53,0a2,2,0,1,1,2,2A2,2,0,0,1,1537,320Zm-53,0a2,2,0,1,1,2,2A2,2,0,0,1,1484,320Zm-53,0a2,2,0,1,1,2,2A2,2,0,0,1,1431,320Zm-53,0a2,2,0,1,1,2,2A2,2,0,0,1,1378,320Zm-53,0a2,2,0,1,1,2,2A2,2,0,0,1,1325,320Zm-53,0a2,2,0,1,1,2,2A2,2,0,0,1,1272,320Zm-53,0a2,2,0,1,1,2,2A2,2,0,0,1,1219,320Zm-53,0a2,2,0,1,1,2,2A2,2,0,0,1,1166,320Zm-53,0a2,2,0,1,1,2,2A2,2,0,0,1,1113,320Zm-53,0a2,2,0,1,1,2,2A2,2,0,0,1,1060,320Zm-53,0a2,2,0,1,1,2,2A2,2,0,0,1,1007,320Zm-53,0a2,2,0,1,1,2,2A2,2,0,0,1,954,320Zm-53,0a2,2,0,1,1,2,2A2,2,0,0,1,901,320Zm-53,0a2,2,0,1,1,2,2A2,2,0,0,1,848,320Zm-53,0a2,2,0,1,1,2,2A2,2,0,0,1,795,320Zm-53,0a2,2,0,1,1,2,2A2,2,0,0,1,742,320Zm-53,0a2,2,0,1,1,2,2A2,2,0,0,1,689,320Zm-53,0a2,2,0,1,1,2,2A2,2,0,0,1,636,320Zm-53,0a2,2,0,1,1,2,2A2,2,0,0,1,583,320Zm-53,0a2,2,0,1,1,2,2A2,2,0,0,1,530,320Zm-53,0a2,2,0,1,1,2,2A2,2,0,0,1,477,320Zm-53,0a2,2,0,1,1,2,2A2,2,0,0,1,424,320Zm-53,0a2,2,0,1,1,2,2A2,2,0,0,1,371,320Zm-53,0a2,2,0,1,1,2,2A2,2,0,0,1,318,320Zm-53,0a2,2,0,1,1,2,2A2,2,0,0,1,265,320Zm-53,0a2,2,0,1,1,2,2A2,2,0,0,1,212,320Zm-53,0a2,2,0,1,1,2,2A2,2,0,0,1,159,320Zm-53,0a2,2,0,1,1,2,2A2,2,0,0,1,106,320Zm-53,0a2,2,0,1,1,2,2A2,2,0,0,1,53,320ZM0,320a2,2,0,1,1,2,2A2,2,0,0,1,0,320Zm2226-53a2,2,0,1,1,2,2A2,2,0,0,1,2226,267Zm-53,0a2,2,0,1,1,2,2A2,2,0,0,1,2173,267Zm-53,0a2,2,0,1,1,2,2A2,2,0,0,1,2120,267Zm-53,0a2,2,0,1,1,2,2A2,2,0,0,1,2067,267Zm-53,0a2,2,0,1,1,2,2A2,2,0,0,1,2014,267Zm-53,0a2,2,0,1,1,2,2A2,2,0,0,1,1961,267Zm-53,0a2,2,0,1,1,2,2A2,2,0,0,1,1908,267Zm-53,0a2,2,0,1,1,2,2A2,2,0,0,1,1855,267Zm-53,0a2,2,0,1,1,2,2A2,2,0,0,1,1802,267Zm-53,0a2,2,0,1,1,2,2A2,2,0,0,1,1749,267Zm-53,0a2,2,0,1,1,2,2A2,2,0,0,1,1696,267Zm-53,0a2,2,0,1,1,2,2A2,2,0,0,1,1643,267Zm-53,0a2,2,0,1,1,2,2A2,2,0,0,1,1590,267Zm-53,0a2,2,0,1,1,2,2A2,2,0,0,1,1537,267Zm-53,0a2,2,0,1,1,2,2A2,2,0,0,1,1484,267Zm-53,0a2,2,0,1,1,2,2A2,2,0,0,1,1431,267Zm-53,0a2,2,0,1,1,2,2A2,2,0,0,1,1378,267Zm-53,0a2,2,0,1,1,2,2A2,2,0,0,1,1325,267Zm-53,0a2,2,0,1,1,2,2A2,2,0,0,1,1272,267Zm-53,0a2,2,0,1,1,2,2A2,2,0,0,1,1219,267Zm-53,0a2,2,0,1,1,2,2A2,2,0,0,1,1166,267Zm-53,0a2,2,0,1,1,2,2A2,2,0,0,1,1113,267Zm-53,0a2,2,0,1,1,2,2A2,2,0,0,1,1060,267Zm-53,0a2,2,0,1,1,2,2A2,2,0,0,1,1007,267Zm-53,0a2,2,0,1,1,2,2A2,2,0,0,1,954,267Zm-53,0a2,2,0,1,1,2,2A2,2,0,0,1,901,267Zm-53,0a2,2,0,1,1,2,2A2,2,0,0,1,848,267Zm-53,0a2,2,0,1,1,2,2A2,2,0,0,1,795,267Zm-53,0a2,2,0,1,1,2,2A2,2,0,0,1,742,267Zm-53,0a2,2,0,1,1,2,2A2,2,0,0,1,689,267Zm-53,0a2,2,0,1,1,2,2A2,2,0,0,1,636,267Zm-53,0a2,2,0,1,1,2,2A2,2,0,0,1,583,267Zm-53,0a2,2,0,1,1,2,2A2,2,0,0,1,530,267Zm-53,0a2,2,0,1,1,2,2A2,2,0,0,1,477,267Zm-53,0a2,2,0,1,1,2,2A2,2,0,0,1,424,267Zm-53,0a2,2,0,1,1,2,2A2,2,0,0,1,371,267Zm-53,0a2,2,0,1,1,2,2A2,2,0,0,1,318,267Zm-53,0a2,2,0,1,1,2,2A2,2,0,0,1,265,267Zm-53,0a2,2,0,1,1,2,2A2,2,0,0,1,212,267Zm-53,0a2,2,0,1,1,2,2A2,2,0,0,1,159,267Zm-53,0a2,2,0,1,1,2,2A2,2,0,0,1,106,267Zm-53,0a2,2,0,1,1,2,2A2,2,0,0,1,53,267ZM0,267a2,2,0,1,1,2,2A2,2,0,0,1,0,267Zm2226-53a2,2,0,1,1,2,2A2,2,0,0,1,2226,214Zm-53,0a2,2,0,1,1,2,2A2,2,0,0,1,2173,214Zm-53,0a2,2,0,1,1,2,2A2,2,0,0,1,2120,214Zm-53,0a2,2,0,1,1,2,2A2,2,0,0,1,2067,214Zm-53,0a2,2,0,1,1,2,2A2,2,0,0,1,2014,214Zm-53,0a2,2,0,1,1,2,2A2,2,0,0,1,1961,214Zm-53,0a2,2,0,1,1,2,2A2,2,0,0,1,1908,214Zm-53,0a2,2,0,1,1,2,2A2,2,0,0,1,1855,214Zm-53,0a2,2,0,1,1,2,2A2,2,0,0,1,1802,214Zm-53,0a2,2,0,1,1,2,2A2,2,0,0,1,1749,214Zm-53,0a2,2,0,1,1,2,2A2,2,0,0,1,1696,214Zm-53,0a2,2,0,1,1,2,2A2,2,0,0,1,1643,214Zm-53,0a2,2,0,1,1,2,2A2,2,0,0,1,1590,214Zm-53,0a2,2,0,1,1,2,2A2,2,0,0,1,1537,214Zm-53,0a2,2,0,1,1,2,2A2,2,0,0,1,1484,214Zm-53,0a2,2,0,1,1,2,2A2,2,0,0,1,1431,214Zm-53,0a2,2,0,1,1,2,2A2,2,0,0,1,1378,214Zm-53,0a2,2,0,1,1,2,2A2,2,0,0,1,1325,214Zm-53,0a2,2,0,1,1,2,2A2,2,0,0,1,1272,214Zm-53,0a2,2,0,1,1,2,2A2,2,0,0,1,1219,214Zm-53,0a2,2,0,1,1,2,2A2,2,0,0,1,1166,214Zm-53,0a2,2,0,1,1,2,2A2,2,0,0,1,1113,214Zm-53,0a2,2,0,1,1,2,2A2,2,0,0,1,1060,214Zm-53,0a2,2,0,1,1,2,2A2,2,0,0,1,1007,214Zm-53,0a2,2,0,1,1,2,2A2,2,0,0,1,954,214Zm-53,0a2,2,0,1,1,2,2A2,2,0,0,1,901,214Zm-53,0a2,2,0,1,1,2,2A2,2,0,0,1,848,214Zm-53,0a2,2,0,1,1,2,2A2,2,0,0,1,795,214Zm-53,0a2,2,0,1,1,2,2A2,2,0,0,1,742,214Zm-53,0a2,2,0,1,1,2,2A2,2,0,0,1,689,214Zm-53,0a2,2,0,1,1,2,2A2,2,0,0,1,636,214Zm-53,0a2,2,0,1,1,2,2A2,2,0,0,1,583,214Zm-53,0a2,2,0,1,1,2,2A2,2,0,0,1,530,214Zm-53,0a2,2,0,1,1,2,2A2,2,0,0,1,477,214Zm-53,0a2,2,0,1,1,2,2A2,2,0,0,1,424,214Zm-53,0a2,2,0,1,1,2,2A2,2,0,0,1,371,214Zm-53,0a2,2,0,1,1,2,2A2,2,0,0,1,318,214Zm-53,0a2,2,0,1,1,2,2A2,2,0,0,1,265,214Zm-53,0a2,2,0,1,1,2,2A2,2,0,0,1,212,214Zm-53,0a2,2,0,1,1,2,2A2,2,0,0,1,159,214Zm-53,0a2,2,0,1,1,2,2A2,2,0,0,1,106,214Zm-53,0a2,2,0,1,1,2,2A2,2,0,0,1,53,214ZM0,214a2,2,0,1,1,2,2A2,2,0,0,1,0,214Zm2226-53a2,2,0,1,1,2,2A2,2,0,0,1,2226,161Zm-53,0a2,2,0,1,1,2,2A2,2,0,0,1,2173,161Zm-53,0a2,2,0,1,1,2,2A2,2,0,0,1,2120,161Zm-53,0a2,2,0,1,1,2,2A2,2,0,0,1,2067,161Zm-53,0a2,2,0,1,1,2,2A2,2,0,0,1,2014,161Zm-53,0a2,2,0,1,1,2,2A2,2,0,0,1,1961,161Zm-53,0a2,2,0,1,1,2,2A2,2,0,0,1,1908,161Zm-53,0a2,2,0,1,1,2,2A2,2,0,0,1,1855,161Zm-53,0a2,2,0,1,1,2,2A2,2,0,0,1,1802,161Zm-53,0a2,2,0,1,1,2,2A2,2,0,0,1,1749,161Zm-53,0a2,2,0,1,1,2,2A2,2,0,0,1,1696,161Zm-53,0a2,2,0,1,1,2,2A2,2,0,0,1,1643,161Zm-53,0a2,2,0,1,1,2,2A2,2,0,0,1,1590,161Zm-53,0a2,2,0,1,1,2,2A2,2,0,0,1,1537,161Zm-53,0a2,2,0,1,1,2,2A2,2,0,0,1,1484,161Zm-53,0a2,2,0,1,1,2,2A2,2,0,0,1,1431,161Zm-53,0a2,2,0,1,1,2,2A2,2,0,0,1,1378,161Zm-53,0a2,2,0,1,1,2,2A2,2,0,0,1,1325,161Zm-53,0a2,2,0,1,1,2,2A2,2,0,0,1,1272,161Zm-53,0a2,2,0,1,1,2,2A2,2,0,0,1,1219,161Zm-53,0a2,2,0,1,1,2,2A2,2,0,0,1,1166,161Zm-53,0a2,2,0,1,1,2,2A2,2,0,0,1,1113,161Zm-53,0a2,2,0,1,1,2,2A2,2,0,0,1,1060,161Zm-53,0a2,2,0,1,1,2,2A2,2,0,0,1,1007,161Zm-53,0a2,2,0,1,1,2,2A2,2,0,0,1,954,161Zm-53,0a2,2,0,1,1,2,2A2,2,0,0,1,901,161Zm-53,0a2,2,0,1,1,2,2A2,2,0,0,1,848,161Zm-53,0a2,2,0,1,1,2,2A2,2,0,0,1,795,161Zm-53,0a2,2,0,1,1,2,2A2,2,0,0,1,742,161Zm-53,0a2,2,0,1,1,2,2A2,2,0,0,1,689,161Zm-53,0a2,2,0,1,1,2,2A2,2,0,0,1,636,161Zm-53,0a2,2,0,1,1,2,2A2,2,0,0,1,583,161Zm-53,0a2,2,0,1,1,2,2A2,2,0,0,1,530,161Zm-53,0a2,2,0,1,1,2,2A2,2,0,0,1,477,161Zm-53,0a2,2,0,1,1,2,2A2,2,0,0,1,424,161Zm-53,0a2,2,0,1,1,2,2A2,2,0,0,1,371,161Zm-53,0a2,2,0,1,1,2,2A2,2,0,0,1,318,161Zm-53,0a2,2,0,1,1,2,2A2,2,0,0,1,265,161Zm-53,0a2,2,0,1,1,2,2A2,2,0,0,1,212,161Zm-53,0a2,2,0,1,1,2,2A2,2,0,0,1,159,161Zm-53,0a2,2,0,1,1,2,2A2,2,0,0,1,106,161Zm-53,0a2,2,0,1,1,2,2A2,2,0,0,1,53,161ZM0,161a2,2,0,1,1,2,2A2,2,0,0,1,0,161Zm2226-53a2,2,0,1,1,2,2A2,2,0,0,1,2226,108Zm-53,0a2,2,0,1,1,2,2A2,2,0,0,1,2173,108Zm-53,0a2,2,0,1,1,2,2A2,2,0,0,1,2120,108Zm-53,0a2,2,0,1,1,2,2A2,2,0,0,1,2067,108Zm-53,0a2,2,0,1,1,2,2A2,2,0,0,1,2014,108Zm-53,0a2,2,0,1,1,2,2A2,2,0,0,1,1961,108Zm-53,0a2,2,0,1,1,2,2A2,2,0,0,1,1908,108Zm-53,0a2,2,0,1,1,2,2A2,2,0,0,1,1855,108Zm-53,0a2,2,0,1,1,2,2A2,2,0,0,1,1802,108Zm-53,0a2,2,0,1,1,2,2A2,2,0,0,1,1749,108Zm-53,0a2,2,0,1,1,2,2A2,2,0,0,1,1696,108Zm-53,0a2,2,0,1,1,2,2A2,2,0,0,1,1643,108Zm-53,0a2,2,0,1,1,2,2A2,2,0,0,1,1590,108Zm-53,0a2,2,0,1,1,2,2A2,2,0,0,1,1537,108Zm-53,0a2,2,0,1,1,2,2A2,2,0,0,1,1484,108Zm-53,0a2,2,0,1,1,2,2A2,2,0,0,1,1431,108Zm-53,0a2,2,0,1,1,2,2A2,2,0,0,1,1378,108Zm-53,0a2,2,0,1,1,2,2A2,2,0,0,1,1325,108Zm-53,0a2,2,0,1,1,2,2A2,2,0,0,1,1272,108Zm-53,0a2,2,0,1,1,2,2A2,2,0,0,1,1219,108Zm-53,0a2,2,0,1,1,2,2A2,2,0,0,1,1166,108Zm-53,0a2,2,0,1,1,2,2A2,2,0,0,1,1113,108Zm-53,0a2,2,0,1,1,2,2A2,2,0,0,1,1060,108Zm-53,0a2,2,0,1,1,2,2A2,2,0,0,1,1007,108Zm-53,0a2,2,0,1,1,2,2A2,2,0,0,1,954,108Zm-53,0a2,2,0,1,1,2,2A2,2,0,0,1,901,108Zm-53,0a2,2,0,1,1,2,2A2,2,0,0,1,848,108Zm-53,0a2,2,0,1,1,2,2A2,2,0,0,1,795,108Zm-53,0a2,2,0,1,1,2,2A2,2,0,0,1,742,108Zm-53,0a2,2,0,1,1,2,2A2,2,0,0,1,689,108Zm-53,0a2,2,0,1,1,2,2A2,2,0,0,1,636,108Zm-53,0a2,2,0,1,1,2,2A2,2,0,0,1,583,108Zm-53,0a2,2,0,1,1,2,2A2,2,0,0,1,530,108Zm-53,0a2,2,0,1,1,2,2A2,2,0,0,1,477,108Zm-53,0a2,2,0,1,1,2,2A2,2,0,0,1,424,108Zm-53,0a2,2,0,1,1,2,2A2,2,0,0,1,371,108Zm-53,0a2,2,0,1,1,2,2A2,2,0,0,1,318,108Zm-53,0a2,2,0,1,1,2,2A2,2,0,0,1,265,108Zm-53,0a2,2,0,1,1,2,2A2,2,0,0,1,212,108Zm-53,0a2,2,0,1,1,2,2A2,2,0,0,1,159,108Zm-53,0a2,2,0,1,1,2,2A2,2,0,0,1,106,108Zm-53,0a2,2,0,1,1,2,2A2,2,0,0,1,53,108ZM0,108a2,2,0,1,1,2,2A2,2,0,0,1,0,108ZM2226,55a2,2,0,1,1,2,2A2,2,0,0,1,2226,55Zm-53,0a2,2,0,1,1,2,2A2,2,0,0,1,2173,55Zm-53,0a2,2,0,1,1,2,2A2,2,0,0,1,2120,55Zm-53,0a2,2,0,1,1,2,2A2,2,0,0,1,2067,55Zm-53,0a2,2,0,1,1,2,2A2,2,0,0,1,2014,55Zm-53,0a2,2,0,1,1,2,2A2,2,0,0,1,1961,55Zm-53,0a2,2,0,1,1,2,2A2,2,0,0,1,1908,55Zm-53,0a2,2,0,1,1,2,2A2,2,0,0,1,1855,55Zm-53,0a2,2,0,1,1,2,2A2,2,0,0,1,1802,55Zm-53,0a2,2,0,1,1,2,2A2,2,0,0,1,1749,55Zm-53,0a2,2,0,1,1,2,2A2,2,0,0,1,1696,55Zm-53,0a2,2,0,1,1,2,2A2,2,0,0,1,1643,55Zm-53,0a2,2,0,1,1,2,2A2,2,0,0,1,1590,55Zm-53,0a2,2,0,1,1,2,2A2,2,0,0,1,1537,55Zm-53,0a2,2,0,1,1,2,2A2,2,0,0,1,1484,55Zm-53,0a2,2,0,1,1,2,2A2,2,0,0,1,1431,55Zm-53,0a2,2,0,1,1,2,2A2,2,0,0,1,1378,55Zm-53,0a2,2,0,1,1,2,2A2,2,0,0,1,1325,55Zm-53,0a2,2,0,1,1,2,2A2,2,0,0,1,1272,55Zm-53,0a2,2,0,1,1,2,2A2,2,0,0,1,1219,55Zm-53,0a2,2,0,1,1,2,2A2,2,0,0,1,1166,55Zm-53,0a2,2,0,1,1,2,2A2,2,0,0,1,1113,55Zm-53,0a2,2,0,1,1,2,2A2,2,0,0,1,1060,55Zm-53,0a2,2,0,1,1,2,2A2,2,0,0,1,1007,55Zm-53,0a2,2,0,1,1,2,2A2,2,0,0,1,954,55Zm-53,0a2,2,0,1,1,2,2A2,2,0,0,1,901,55Zm-53,0a2,2,0,1,1,2,2A2,2,0,0,1,848,55Zm-53,0a2,2,0,1,1,2,2A2,2,0,0,1,795,55Zm-53,0a2,2,0,1,1,2,2A2,2,0,0,1,742,55Zm-53,0a2,2,0,1,1,2,2A2,2,0,0,1,689,55Zm-53,0a2,2,0,1,1,2,2A2,2,0,0,1,636,55Zm-53,0a2,2,0,1,1,2,2A2,2,0,0,1,583,55Zm-53,0a2,2,0,1,1,2,2A2,2,0,0,1,530,55Zm-53,0a2,2,0,1,1,2,2A2,2,0,0,1,477,55Zm-53,0a2,2,0,1,1,2,2A2,2,0,0,1,424,55Zm-53,0a2,2,0,1,1,2,2A2,2,0,0,1,371,55Zm-53,0a2,2,0,1,1,2,2A2,2,0,0,1,318,55Zm-53,0a2,2,0,1,1,2,2A2,2,0,0,1,265,55Zm-53,0a2,2,0,1,1,2,2A2,2,0,0,1,212,55Zm-53,0a2,2,0,1,1,2,2A2,2,0,0,1,159,55Zm-53,0a2,2,0,1,1,2,2A2,2,0,0,1,106,55ZM53,55a2,2,0,1,1,2,2A2,2,0,0,1,53,55ZM0,55a2,2,0,1,1,2,2A2,2,0,0,1,0,55ZM2226,2a2,2,0,1,1,2,2A2,2,0,0,1,2226,2Zm-53,0a2,2,0,1,1,2,2A2,2,0,0,1,2173,2Zm-53,0a2,2,0,1,1,2,2A2,2,0,0,1,2120,2Zm-53,0a2,2,0,1,1,2,2A2,2,0,0,1,2067,2Zm-53,0a2,2,0,1,1,2,2A2,2,0,0,1,2014,2Zm-53,0a2,2,0,1,1,2,2A2,2,0,0,1,1961,2Zm-53,0a2,2,0,1,1,2,2A2,2,0,0,1,1908,2Zm-53,0a2,2,0,1,1,2,2A2,2,0,0,1,1855,2Zm-53,0a2,2,0,1,1,2,2A2,2,0,0,1,1802,2Zm-53,0a2,2,0,1,1,2,2A2,2,0,0,1,1749,2Zm-53,0a2,2,0,1,1,2,2A2,2,0,0,1,1696,2Zm-53,0a2,2,0,1,1,2,2A2,2,0,0,1,1643,2Zm-53,0a2,2,0,1,1,2,2A2,2,0,0,1,1590,2Zm-53,0a2,2,0,1,1,2,2A2,2,0,0,1,1537,2Zm-53,0a2,2,0,1,1,2,2A2,2,0,0,1,1484,2Zm-53,0a2,2,0,1,1,2,2A2,2,0,0,1,1431,2Zm-53,0a2,2,0,1,1,2,2A2,2,0,0,1,1378,2Zm-53,0a2,2,0,1,1,2,2A2,2,0,0,1,1325,2Zm-53,0a2,2,0,1,1,2,2A2,2,0,0,1,1272,2Zm-53,0a2,2,0,1,1,2,2A2,2,0,0,1,1219,2Zm-53,0a2,2,0,1,1,2,2A2,2,0,0,1,1166,2Zm-53,0a2,2,0,1,1,2,2A2,2,0,0,1,1113,2Zm-53,0a2,2,0,1,1,2,2A2,2,0,0,1,1060,2Zm-53,0a2,2,0,1,1,2,2A2,2,0,0,1,1007,2ZM954,2a2,2,0,1,1,2,2A2,2,0,0,1,954,2ZM901,2a2,2,0,1,1,2,2A2,2,0,0,1,901,2ZM848,2a2,2,0,1,1,2,2A2,2,0,0,1,848,2ZM795,2a2,2,0,1,1,2,2A2,2,0,0,1,795,2ZM742,2a2,2,0,1,1,2,2A2,2,0,0,1,742,2ZM689,2a2,2,0,1,1,2,2A2,2,0,0,1,689,2ZM636,2a2,2,0,1,1,2,2A2,2,0,0,1,636,2ZM583,2a2,2,0,1,1,2,2A2,2,0,0,1,583,2ZM530,2a2,2,0,1,1,2,2A2,2,0,0,1,530,2ZM477,2a2,2,0,1,1,2,2A2,2,0,0,1,477,2ZM424,2a2,2,0,1,1,2,2A2,2,0,0,1,424,2ZM371,2a2,2,0,1,1,2,2A2,2,0,0,1,371,2ZM318,2a2,2,0,1,1,2,2A2,2,0,0,1,318,2ZM265,2a2,2,0,1,1,2,2A2,2,0,0,1,265,2ZM212,2a2,2,0,1,1,2,2A2,2,0,0,1,212,2ZM159,2a2,2,0,1,1,2,2A2,2,0,0,1,159,2ZM106,2a2,2,0,1,1,2,2A2,2,0,0,1,106,2ZM53,2a2,2,0,1,1,2,2A2,2,0,0,1,53,2ZM0,2A2,2,0,1,1,2,4,2,2,0,0,1,0,2Z" transform="matrix(0.985, -0.174, 0.174, 0.985, -162.354, 19.593)" fill="url(#linear-gradient)"/>
  </g>
</svg>
